<svg viewBox="-2.4 -2.4 28.80 28.80" fill="none" xmlns="http://www.w3.org/2000/svg"><g id="SVGRepo_bgCarrier" stroke-width="0"><path transform="translate(-2.4, -2.4), scale(1.7999999999999998)" fill="#7ed0ec" d="M9.166.33a2.25 2.25 0 00-2.332 0l-5.25 3.182A2.25 2.25 0 00.5 5.436v5.128a2.25 2.25 0 001.084 1.924l5.25 3.182a2.25 2.25 0 002.332 0l5.25-3.182a2.25 2.25 0 001.084-1.924V5.436a2.25 2.25 0 00-1.084-1.924L9.166.33z" strokewidth="0"></path></g><g id="SVGRepo_tracerCarrier" stroke-linecap="round" stroke-linejoin="round"></g><g id="SVGRepo_iconCarrier"> <path d="M12 21L10 20M12 21L14 20M12 21V18.5M6 18L4 17V14.5M4 9.5V7M4 7L6 6M4 7L6 8M10 4L12 3L14 4M18 6L20 7M20 7L18 8M20 7V9.5M12 11L10 10M12 11L14 10M12 11V13.5M18 18L20 17V14.5" stroke="#000000" stroke-width="2" stroke-linecap="round" stroke-linejoin="round"></path> </g></svg>
